<svg xmlns="http://www.w3.org/2000/svg" width="500" height="500"><defs><clipPath id="a"><path d="M18 162h16v16H18zM18 258h16v16H18zM18 306h16v16H18zM34 162h16v16H34zM34 178h16v16H34zM34 194h16v16H34zM34 210h16v16H34zM34 258h16v16H34zM34 290h16v16H34zM34 322h16v16H34zM34 338h16v16H34zM50 146h16v16H50zM50 178h16v16H50zM50 210h16v16H50zM50 258h16v16H50zM50 290h16v16H50zM50 306h16v16H50zM50 322h16v16H50zM50 338h16v16H50zM66 194h16v16H66zM66 210h16v16H66zM66 226h16v16H66zM66 322h16v16H66zM66 338h16v16H66zM82 146h16v16H82zM82 162h16v16H82zM82 178h16v16H82zM82 194h16v16H82zM82 210h16v16H82zM82 226h16v16H82zM82 242h16v16H82zM82 258h16v16H82zM82 290h16v16H82zM82 306h16v16H82zM98 146h16v16H98zM98 162h16v16H98zM98 178h16v16H98zM98 242h16v16H98zM98 306h16v16H98zM98 322h16v16H98zM114 146h16v16h-16zM114 178h16v16h-16zM114 210h16v16h-16zM114 242h16v16h-16zM114 274h16v16h-16zM114 306h16v16h-16zM114 338h16v16h-16zM130 226h16v16h-16zM130 290h16v16h-16zM130 306h16v16h-16zM130 322h16v16h-16zM130 338h16v16h-16zM146 34h16v16h-16zM146 82h16v16h-16zM146 114h16v16h-16zM146 146h16v16h-16zM146 162h16v16h-16zM146 178h16v16h-16zM146 194h16v16h-16zM146 210h16v16h-16zM146 226h16v16h-16zM146 242h16v16h-16zM146 290h16v16h-16zM146 322h16v16h-16zM146 338h16v16h-16zM146 354h16v16h-16zM146 386h16v16h-16zM146 402h16v16h-16zM146 434h16v16h-16zM162 18h16v16h-16zM162 34h16v16h-16zM162 50h16v16h-16zM162 98h16v16h-16zM162 130h16v16h-16zM162 194h16v16h-16zM162 210h16v16h-16zM162 290h16v16h-16zM162 306h16v16h-16zM162 338h16v16h-16zM162 370h16v16h-16zM162 386h16v16h-16zM162 402h16v16h-16zM162 434h16v16h-16zM162 450h16v16h-16zM162 466h16v16h-16zM178 34h16v16h-16zM178 66h16v16h-16zM178 82h16v16h-16zM178 114h16v16h-16zM178 130h16v16h-16zM178 146h16v16h-16zM178 178h16v16h-16zM178 242h16v16h-16zM178 306h16v16h-16zM178 354h16v16h-16zM178 418h16v16h-16zM178 466h16v16h-16zM194 18h16v16h-16zM194 130h16v16h-16zM194 146h16v16h-16zM194 162h16v16h-16zM194 194h16v16h-16zM194 226h16v16h-16zM194 258h16v16h-16zM194 274h16v16h-16zM194 290h16v16h-16zM194 322h16v16h-16zM194 354h16v16h-16zM194 418h16v16h-16zM194 450h16v16h-16zM194 466h16v16h-16zM210 50h16v16h-16zM210 66h16v16h-16zM210 114h16v16h-16zM210 178h16v16h-16zM210 210h16v16h-16zM210 242h16v16h-16zM210 258h16v16h-16zM210 274h16v16h-16zM210 290h16v16h-16zM210 322h16v16h-16zM210 386h16v16h-16zM210 418h16v16h-16zM210 466h16v16h-16zM226 50h16v16h-16zM226 66h16v16h-16zM226 82h16v16h-16zM226 98h16v16h-16zM226 130h16v16h-16zM226 146h16v16h-16zM226 178h16v16h-16zM226 194h16v16h-16zM226 274h16v16h-16zM226 290h16v16h-16zM226 306h16v16h-16zM226 370h16v16h-16zM226 402h16v16h-16zM226 434h16v16h-16zM226 466h16v16h-16zM242 18h16v16h-16zM242 50h16v16h-16zM242 114h16v16h-16zM242 146h16v16h-16zM242 162h16v16h-16zM242 178h16v16h-16zM242 274h16v16h-16zM242 306h16v16h-16zM242 338h16v16h-16zM242 402h16v16h-16zM242 466h16v16h-16zM258 82h16v16h-16zM258 146h16v16h-16zM258 194h16v16h-16zM258 226h16v16h-16zM258 242h16v16h-16zM258 290h16v16h-16zM258 306h16v16h-16zM258 322h16v16h-16zM258 338h16v16h-16zM258 354h16v16h-16zM258 386h16v16h-16zM258 418h16v16h-16zM258 450h16v16h-16zM258 466h16v16h-16zM274 18h16v16h-16zM274 50h16v16h-16zM274 82h16v16h-16zM274 114h16v16h-16zM274 178h16v16h-16zM274 210h16v16h-16zM274 258h16v16h-16zM274 274h16v16h-16zM274 290h16v16h-16zM274 306h16v16h-16zM274 322h16v16h-16zM274 354h16v16h-16zM274 450h16v16h-16zM290 18h16v16h-16zM290 66h16v16h-16zM290 98h16v16h-16zM290 130h16v16h-16zM290 162h16v16h-16zM290 210h16v16h-16zM290 306h16v16h-16zM290 354h16v16h-16zM290 370h16v16h-16zM290 386h16v16h-16zM290 402h16v16h-16zM290 466h16v16h-16zM306 50h16v16h-16zM306 82h16v16h-16zM306 98h16v16h-16zM306 114h16v16h-16zM306 130h16v16h-16zM306 146h16v16h-16zM306 178h16v16h-16zM306 194h16v16h-16zM306 226h16v16h-16zM306 242h16v16h-16zM306 258h16v16h-16zM306 306h16v16h-16zM306 338h16v16h-16zM306 434h16v16h-16zM306 466h16v16h-16zM322 50h16v16h-16zM322 66h16v16h-16zM322 130h16v16h-16zM322 194h16v16h-16zM322 226h16v16h-16zM322 258h16v16h-16zM322 274h16v16h-16zM322 290h16v16h-16zM322 322h16v16h-16zM322 338h16v16h-16zM322 402h16v16h-16zM322 418h16v16h-16zM322 450h16v16h-16zM338 18h16v16h-16zM338 34h16v16h-16zM338 82h16v16h-16zM338 114h16v16h-16zM338 130h16v16h-16zM338 178h16v16h-16zM338 226h16v16h-16zM338 242h16v16h-16zM338 290h16v16h-16zM338 338h16v16h-16zM338 354h16v16h-16zM338 370h16v16h-16zM338 386h16v16h-16zM338 402h16v16h-16zM338 418h16v16h-16zM338 450h16v16h-16zM338 466h16v16h-16zM354 146h16v16h-16zM354 162h16v16h-16zM354 194h16v16h-16zM354 226h16v16h-16zM354 258h16v16h-16zM354 274h16v16h-16zM354 290h16v16h-16zM354 338h16v16h-16zM354 402h16v16h-16zM354 434h16v16h-16zM354 450h16v16h-16zM354 466h16v16h-16zM370 162h16v16h-16zM370 226h16v16h-16zM370 242h16v16h-16zM370 258h16v16h-16zM370 306h16v16h-16zM370 322h16v16h-16zM370 338h16v16h-16zM370 370h16v16h-16zM370 402h16v16h-16zM370 466h16v16h-16zM386 162h16v16h-16zM386 178h16v16h-16zM386 210h16v16h-16zM386 290h16v16h-16zM386 306h16v16h-16zM386 322h16v16h-16zM386 338h16v16h-16zM386 402h16v16h-16zM386 418h16v16h-16zM386 450h16v16h-16zM402 146h16v16h-16zM402 162h16v16h-16zM402 178h16v16h-16zM402 194h16v16h-16zM402 242h16v16h-16zM402 258h16v16h-16zM402 306h16v16h-16zM402 322h16v16h-16zM402 338h16v16h-16zM402 354h16v16h-16zM402 370h16v16h-16zM402 386h16v16h-16zM402 402h16v16h-16zM402 450h16v16h-16zM402 466h16v16h-16zM418 162h16v16h-16zM418 178h16v16h-16zM418 210h16v16h-16zM418 274h16v16h-16zM418 306h16v16h-16zM418 386h16v16h-16zM418 434h16v16h-16zM418 450h16v16h-16zM434 162h16v16h-16zM434 194h16v16h-16zM434 226h16v16h-16zM434 274h16v16h-16zM434 322h16v16h-16zM434 338h16v16h-16zM434 354h16v16h-16zM434 450h16v16h-16zM434 466h16v16h-16zM450 146h16v16h-16zM450 162h16v16h-16zM450 194h16v16h-16zM450 226h16v16h-16zM450 242h16v16h-16zM450 290h16v16h-16zM450 338h16v16h-16zM450 370h16v16h-16zM450 386h16v16h-16zM450 418h16v16h-16zM450 450h16v16h-16zM450 466h16v16h-16zM466 194h16v16h-16zM466 242h16v16h-16zM466 258h16v16h-16zM466 290h16v16h-16zM466 338h16v16h-16zM466 402h16v16h-16zM466 418h16v16h-16zM466 450h16v16h-16z"/></clipPath><clipPath id="b"><path d="M18 18v112h112V18zm16 16h80v80H34z" clip-rule="evenodd"/></clipPath><clipPath id="c"><path d="M50 50h48v48H50z"/></clipPath><clipPath id="d"><path d="M482 18H370v112h112zm-16 16v80h-80V34z" clip-rule="evenodd"/></clipPath><clipPath id="e"><path d="M450 50v48h-48V50z"/></clipPath><clipPath id="f"><path d="M18 482h112V370H18zm16-16v-80h80v80z" clip-rule="evenodd"/></clipPath><clipPath id="g"><path d="M50 450v-48h48v48z"/></clipPath></defs><path fill="none" d="M0 0h500v500H0z" clip-path="url('#clip-path-background-color')"/><path fill="#fff" d="M0 0h500v500H0z" clip-path="url('#a')"/><path fill="#fff" d="M18 18h112v112H18z" clip-path="url('#b')"/><path fill="#fff" d="M50 50h48v48H50z" clip-path="url('#c')"/><path fill="#fff" d="M370 18h112v112H370z" clip-path="url('#d')"/><path fill="#fff" d="M402 50h48v48h-48z" clip-path="url('#e')"/><path fill="#fff" d="M18 370h112v112H18z" clip-path="url('#f')"/><path fill="#fff" d="M50 402h48v48H50z" clip-path="url('#g')"/></svg>